<svg width="35" height="26" viewBox="0 0 35 26" fill="none" xmlns="http://www.w3.org/2000/svg">
<path fill-rule="evenodd" clip-rule="evenodd" d="M24.7505 14.4204C26.9144 15.8893 28.4307 17.8795 28.4307 20.533V25.2715H34.7487V20.533C34.7487 17.0897 29.1099 15.0522 24.7505 14.4204Z" fill="#7D63FF"/>
<path d="M12.6358 12.6359C16.1251 12.6359 18.9538 9.80727 18.9538 6.31796C18.9538 2.82865 16.1251 0 12.6358 0C9.14652 0 6.31787 2.82865 6.31787 6.31796C6.31787 9.80727 9.14652 12.6359 12.6358 12.6359Z" fill="#7D63FF"/>
<path fill-rule="evenodd" clip-rule="evenodd" d="M22.1124 12.6359C25.6031 12.6359 28.4304 9.80863 28.4304 6.31796C28.4304 2.82729 25.6031 0 22.1124 0C21.3701 0 20.6751 0.157949 20.0117 0.379077C21.3227 2.00595 22.1124 4.07508 22.1124 6.31796C22.1124 8.56083 21.3227 10.63 20.0117 12.2568C20.6751 12.478 21.3701 12.6359 22.1124 12.6359Z" fill="#7D63FF"/>
<path fill-rule="evenodd" clip-rule="evenodd" d="M12.6359 14.2153C8.41868 14.2153 0 16.3318 0 20.5333V25.2718H25.2718V20.5333C25.2718 16.3318 16.8532 14.2153 12.6359 14.2153Z" fill="#7D63FF"/>
</svg>
